#N canvas 668 173 587 330 10;
#X obj -1341 165 s~ g_in;
#N canvas 367 639 357 203 pke_ctrl 0;
#X obj -126 -30 sig~ -1;
#X text -121 -107 start writing;
#X text -121 -96 stop writing by sending -1 signal;
#X obj -39 -72 inlet;
#X obj -39 -52 sel 1;
#X msg -12 -26 stop;
#X msg -39 -30 0;
#X obj -126 42 *~ 1;
#X obj -126 65 outlet~;
#X obj -39 -9 count~ 0 88200;
#X obj -54 34 unsig~;
#X floatatom -54 54 80 0 0 0 - - -;
#X floatatom 15 -55 5 0 0 0 - - -;
#X msg 131 -8 connect 1 0;
#X msg 132 -35 connect 0 0;
#X msg 131 17 disconnect 1 0;
#X msg 131 41 disconnect 0 0;
#X obj -126 17 matrix~ 2 1 1;
#X connect 0 0 17 0;
#X connect 3 0 4 0;
#X connect 3 0 12 0;
#X connect 4 0 6 0;
#X connect 4 0 13 0;
#X connect 4 1 5 0;
#X connect 4 1 14 0;
#X connect 5 0 9 0;
#X connect 6 0 9 0;
#X connect 7 0 8 0;
#X connect 9 0 17 1;
#X connect 10 0 11 0;
#X connect 13 0 17 0;
#X connect 14 0 17 0;
#X connect 17 0 7 0;
#X connect 17 0 10 0;
#X restore -1341 145 pd pke_ctrl;
#X obj -1566 98 r~ g_in;
#X obj -1603 156 poke~ string1;
#X obj -1604 187 table string1 88200;
#X obj -1478 186 table string2 88200;
#X obj -1477 62 adc~ 2;
#X obj -1477 156 poke~ string2;
#X obj -1566 139 spigot~;
#X obj -1440 97 r~ g_in;
#X obj -1440 139 spigot~;
#X obj -1603 63 adc~ 1;
#X obj -1341 124 tgl 15 0 empty empty empty 17 7 0 10 -262144 -1 -1
0 1;
#X obj -1218 123 samplerate~;
#X obj -1218 161 s sr;
#X obj -1218 102 loadbang;
#X obj -1139 108 bng 15 250 50 0 empty empty empty 17 7 0 10 -262144
-1 -1;
#X text -1320 122 < on / off;
#X obj -1605 272 dac~ 1;
#X obj -1605 249 +~;
#X obj -1286 231 gramulator~ string2 4 200 44100 44.1 1 *;
#X obj -1605 232 gramulator~ string1 4 200 44100 44.1 1 *;
#X obj -1286 248 +~;
#X obj -1286 272 dac~ 2;
#X text -1097 299 rg ' 15;
#X text -1603 15 gramulator~ v1 - for Pd Extended;
#X connect 1 0 0 0;
#X connect 2 0 8 0;
#X connect 6 0 7 0;
#X connect 8 1 3 1;
#X connect 9 0 10 0;
#X connect 10 1 7 1;
#X connect 11 0 3 0;
#X connect 12 0 1 0;
#X connect 12 0 8 1;
#X connect 12 0 10 1;
#X connect 13 0 14 0;
#X connect 15 0 13 0;
#X connect 16 0 13 0;
#X connect 19 0 18 0;
#X connect 20 0 22 0;
#X connect 20 1 22 1;
#X connect 21 0 19 0;
#X connect 21 1 19 1;
#X connect 22 0 23 0;
