#N canvas 58 139 1057 452 10;
#X obj 228 345 *~;
#X obj 228 217 +~;
#X obj 27 113 sig~;
#X obj 27 85 random;
#X obj 228 136 phasor~;
#X obj 60 63 f \$2;
#X obj 850 35 initbang;
#X obj 228 376 outlet~;
#X obj 272 60 r gs;
#X obj 141 200 +~;
#X obj 228 165 *~;
#X obj 598 345 *~;
#X obj 502 178 wrap~;
#X obj 423 195 *~;
#X obj 598 212 +~;
#X obj 613 171 sig~;
#X obj 613 146 random;
#X obj 646 125 f \$2;
#X obj 272 36 f \$4;
#X obj 438 148 *~ 44.1;
#X obj 272 16 r \$0-b0;
#X obj 613 108 r \$0-b1;
#X obj 60 26 r \$0-b0;
#X obj 743 171 noise~;
#X obj 156 130 noise~;
#X obj 743 195 samphold~;
#X obj 156 153 samphold~;
#X text 945 414 rg june '15;
#X text 881 426 http://rickygraham.com;
#X obj 812 35 r rgs;
#X obj 389 131 line~;
#X obj 5 68 r \$0-b1;
#X obj 850 52 t b b b;
#X obj 946 69 s \$0-b0;
#X obj 898 69 s \$0-b1;
#X obj 850 69 s \$0-b2;
#N canvas 800 511 298 164 buf-set 0;
#X obj 9 10 t b b b;
#X msg 188 91 set set \$1-\$2;
#X msg 120 27 w;
#X obj 188 67 pack f s;
#X obj 120 50 symbol;
#X obj 9 -14 inlet;
#X obj 9 124 outlet;
#X obj 123 108 outlet;
#X obj 28 47 symbol \$1;
#X msg 28 91 set set \$1;
#X text 167 45 build your own;
#X connect 0 0 6 0;
#X connect 0 1 8 0;
#X connect 0 2 2 0;
#X connect 2 0 4 0;
#X connect 3 0 1 0;
#X connect 4 0 3 1;
#X connect 5 0 0 0;
#X connect 8 0 9 0;
#X connect 9 0 7 0;
#X restore 5 294 pd buf-set;
#X obj 598 228 +~;
#X obj 307 60 r \$0-gs;
#X obj 156 182 *~ 16384;
#X obj 743 211 *~ 16384;
#X msg 62 311 set string1;
#X obj 228 94 /;
#X msg 172 77 1000;
#X obj 172 57 r \$0-b2;
#X obj 369 53 random;
#X obj 307 77 t b f;
#X obj 307 120 s \$0-gb;
#X obj 220 60 r \$0-gb;
#N canvas 615 656 407 77 buf_off 0;
#X obj 7 12 inlet~;
#X obj 7 57 outlet~;
#X text 51 9 grain;
#X obj 364 7 inlet~;
#X obj 7 32 expr~ if($v1 >= $v2 - 64 && $v1 <= $v2 + 64 \, $v1 + 128
\, $v1);
#X text 64 54 don't read from where you're writing!;
#X connect 0 0 4 0;
#X connect 3 0 4 1;
#X connect 4 0 1 0;
#X restore 228 283 pd buf_off;
#X obj 329 266 r~ g_in;
#X obj 598 387 outlet~;
#N canvas 890 359 488 377 pbs 0;
#X obj 145 167 phasor~;
#X obj 145 211 samphold~;
#X msg 54 104 44100;
#X floatatom 54 78 5 0 0 0 - - -;
#X obj 57 59 hsl 128 15 -1 1 0 0 empty empty empty -2 -8 0 10 -262144
-1 -1 10160 1;
#X obj 145 143 *~ 1;
#X obj 54 36 inlet;
#X obj 145 240 outlet~;
#X obj 220 194 inlet~;
#N canvas 1165 458 450 300 rand-pb 0;
#X obj 62 200 outlet;
#X obj 62 128 random 10;
#X obj 62 152 / 5;
#X obj 62 174 - 1;
#X obj 62 106 initbang;
#X connect 1 0 2 0;
#X connect 2 0 3 0;
#X connect 3 0 0 0;
#X connect 4 0 1 0;
#X restore 200 42 pd rand-pb;
#X obj 54 126 /~ 65536;
#X obj 145 188 *~ 65536;
#X connect 0 0 11 0;
#X connect 1 0 7 0;
#X connect 2 0 10 0;
#X connect 3 0 2 0;
#X connect 3 0 5 1;
#X connect 4 0 3 0;
#X connect 5 0 0 0;
#X connect 6 0 4 0;
#X connect 8 0 1 1;
#X connect 9 0 4 0;
#X connect 10 0 5 0;
#X connect 11 0 1 0;
#X restore 934 195 pd pbs;
#X obj 934 175 r pbs;
#X obj 934 212 +~;
#N canvas 890 359 488 377 pbs 0;
#X obj 145 167 phasor~;
#X obj 145 211 samphold~;
#X msg 54 104 44100;
#X floatatom 54 78 5 0 0 0 - - -;
#X obj 57 59 hsl 128 15 -1 1 0 0 empty empty empty -2 -8 0 10 -262144
-1 -1 0 1;
#X obj 145 143 *~ 1;
#X obj 54 36 inlet;
#X obj 145 240 outlet~;
#X obj 220 194 inlet~;
#N canvas 1165 458 450 300 rand-pb 0;
#X obj 62 200 outlet;
#X obj 62 128 random 10;
#X obj 62 152 / 5;
#X obj 62 174 - 1;
#X obj 62 106 initbang;
#X obj 133 111 r rgs;
#X connect 1 0 2 0;
#X connect 2 0 3 0;
#X connect 3 0 0 0;
#X connect 4 0 1 0;
#X connect 5 0 1 0;
#X restore 203 42 pd rand-pb;
#X msg 287 87 set \$1;
#X obj 287 64 r sr;
#X obj 54 126 /~ 65536;
#X obj 145 188 *~ 65536;
#X connect 0 0 13 0;
#X connect 1 0 7 0;
#X connect 2 0 12 0;
#X connect 3 0 2 0;
#X connect 3 0 5 1;
#X connect 4 0 3 0;
#X connect 5 0 0 0;
#X connect 6 0 4 0;
#X connect 8 0 1 1;
#X connect 9 0 4 0;
#X connect 10 0 2 0;
#X connect 11 0 10 0;
#X connect 12 0 5 0;
#X connect 13 0 1 0;
#X restore 105 153 pd pbs;
#X obj 105 133 r pbs;
#X obj 105 182 +~;
#X obj 24 191 r \$0-b1;
#X obj 502 153 +~ 0.5;
#N canvas 500 474 695 138 buf_off 0;
#X obj 5 -79 inlet~;
#X obj 5 -34 outlet~;
#X text 49 -82 grain;
#X text 408 -92 poke - 64;
#X text 408 -81 poke + 64;
#X obj 362 -85 inlet~;
#X text 62 -37 if grain reader conflicts with poke~ index \, read directly
from buffer~;
#X text 143 -24 passes poke~ index rather than grain index;
#X obj 583 -82 abs~;
#X obj 583 -58 *~ 44100;
#X obj 499 -56 +~;
#X obj 499 -104 phasor~ 0.2;
#X obj 499 -80 *~ 44100;
#X obj 583 -104 osc~ 5;
#X text 494 -38 try something crazy with $v4?;
#X obj 5 -59 expr~ if($v1 >= $v2 - 64 && $v1 <= $v2 + 64 \, $v1 + 128
\, $v1);
#X connect 0 0 15 0;
#X connect 5 0 15 1;
#X connect 8 0 9 0;
#X connect 11 0 12 0;
#X connect 12 0 10 0;
#X connect 13 0 8 0;
#X connect 15 0 1 0;
#X restore 598 305 pd buf_off;
#X obj 666 288 r~ g_in;
#X obj 477 43 r \$0-b0;
#X obj 24 213 f \$6;
#X obj 853 170 f \$6;
#X msg 389 111 \$1 \$2;
#X obj 411 60 r gli;
#X obj 411 77 t b f;
#X obj 411 94 pack f f;
#N canvas 338 389 765 347 help 0;
#X text 21 46 expr~ $v1 * 44.1 ms to samps;
#X text 21 78 expr~ 44100 / $v1;
#X text 132 77 < samp to rate;
#X text 22 30 ms -> samp = ms * 44.1;
#X text 21 62 samp -> rate (hz) = 44100 / sample size;
#X text 21 94 rampsmooth~ / pitch glide effects;
#X text 278 107 expr~ abs(fmod($v1 \, $v2)) switched out for pong~
(fold / mode 0 / wrap mode 1);
#X text 278 27 \$1 - source \; \$2 - max start location (rand) \; \$3
- max end location / defunct \; \$4 - grain size (rand);
#X text 279 78 \$5 - pitch;
#X text 279 91 \$6 - mode 0 or 1 (rand / linear);
#N canvas 883 580 242 73 switch? 0;
#X obj 26 18 != 0;
#X obj 26 35 s \$0-sw;
#X obj 151 16 r \$0-sw;
#X obj 81 33 spigot~ 1;
#X connect 0 0 1 0;
#X connect 2 0 3 1;
#X restore 26 147 pd switch?;
#N canvas 968 607 85 87 phase? 0;
#X obj 7 36 random 10;
#X obj 7 17 r \$0-b0;
#X obj 7 56 / 10;
#X connect 0 0 2 0;
#X connect 1 0 0 0;
#X restore 98 147 pd phase?;
#N canvas 829 384 269 155 gscu 0;
#X obj 6 3 inlet~;
#X obj 82 22 inlet~;
#X obj 82 41 change~;
#X text 6 133 threshold~ \, zerox~ \, edge~ \, change~;
#X obj 6 103 outlet~;
#X obj 6 65 expr~ if($v2==0 \, $v1 \, $v3);
#X floatatom 183 101 10 0 0 0 - - -;
#X obj 182 81 Snapshot~ 5;
#X obj 159 45 sig~ 0;
#X connect 0 0 5 0;
#X connect 1 0 2 0;
#X connect 2 0 5 1;
#X connect 5 0 4 0;
#X connect 7 0 6 0;
#X connect 8 0 5 2;
#X restore 282 144 pd gscu;
#X text 332 143 < work in progress;
#X obj 25 204 *~ 1024;
#X msg 89 228 set \$1;
#X obj 89 207 symbol \$0-gw;
#X obj 276 226 *~ 1024;
#X msg 332 226 set \$1;
#X obj 332 206 symbol \$0-gw;
#X obj 89 188 r \$0-b0;
#X obj 332 186 r \$0-b0;
#X obj 397 260 table \$0-gw 2048;
#X msg 397 223 \; \$1 sinesum 2048 1;
#X obj 25 245 tabread~;
#X obj 276 243 tabread~;
#X text 526 225 Old Windowing;
#X connect 14 0 24 0;
#X connect 15 0 24 0;
#X connect 16 0 15 0;
#X connect 17 0 25 0;
#X connect 18 0 25 0;
#X connect 19 0 18 0;
#X connect 19 0 23 0;
#X connect 20 0 16 0;
#X connect 21 0 19 0;
#X restore 946 393 pd help;
#X obj 228 328 tabread~;
#X obj 598 328 tabread~;
#X obj 477 124 f \$5;
#X obj 369 31 r \$0-b1;
#X obj 853 148 r \$0-b1;
#X obj 24 234 multiplex~ - -;
#X obj 853 245 multiplex~ - -;
#X obj 369 77 + 20;
#X msg 452 60 15;
#X text 621 75 rethink rand add to pos;
#X obj 323 285 sig~ 1;
#X obj 323 307 -~;
#X obj 374 290 cos~;
#X obj 323 328 *~ 0.5;
#X obj 722 285 sig~ 1;
#X obj 722 307 -~;
#X obj 773 290 cos~;
#X obj 722 328 *~ 0.5;
#X text 331 221 65536;
#X obj 228 251 pong~ 1 0 65536;
#X obj 598 262 pong~ 1 0 65536;
#X obj 228 116 sig~;
#X connect 0 0 7 0;
#X connect 1 0 75 0;
#X connect 2 0 9 0;
#X connect 3 0 2 0;
#X connect 4 0 26 1;
#X connect 4 0 55 1;
#X connect 4 0 10 0;
#X connect 4 0 59 0;
#X connect 4 0 82 0;
#X connect 5 0 3 1;
#X connect 6 0 32 0;
#X connect 8 0 46 0;
#X connect 9 0 1 1;
#X connect 10 0 1 0;
#X connect 10 0 57 1;
#X connect 11 0 51 0;
#X connect 12 0 13 0;
#X connect 12 0 25 1;
#X connect 12 0 52 1;
#X connect 12 0 86 0;
#X connect 13 0 14 0;
#X connect 13 0 54 1;
#X connect 14 0 37 0;
#X connect 15 0 14 1;
#X connect 16 0 15 0;
#X connect 17 0 16 1;
#X connect 18 0 45 1;
#X connect 19 0 13 1;
#X connect 19 0 10 1;
#X connect 20 0 18 0;
#X connect 21 0 16 0;
#X connect 21 0 17 0;
#X connect 22 0 5 0;
#X connect 23 0 25 0;
#X connect 24 0 26 0;
#X connect 25 0 40 0;
#X connect 26 0 39 0;
#X connect 29 0 32 0;
#X connect 30 0 19 0;
#X connect 31 0 3 0;
#X connect 31 0 36 0;
#X connect 32 0 35 0;
#X connect 32 1 34 0;
#X connect 32 2 33 0;
#X connect 36 0 41 0;
#X connect 36 1 41 0;
#X connect 37 0 76 0;
#X connect 38 0 46 0;
#X connect 39 0 9 1;
#X connect 40 0 37 1;
#X connect 41 0 70 0;
#X connect 41 0 71 0;
#X connect 42 0 91 0;
#X connect 43 0 42 0;
#X connect 44 0 43 0;
#X connect 45 0 77 0;
#X connect 46 0 47 0;
#X connect 46 1 42 1;
#X connect 46 1 77 0;
#X connect 48 0 43 0;
#X connect 49 0 70 0;
#X connect 50 0 49 1;
#X connect 52 0 54 0;
#X connect 53 0 52 0;
#X connect 54 0 76 1;
#X connect 55 0 57 0;
#X connect 56 0 55 0;
#X connect 57 0 75 1;
#X connect 58 0 63 0;
#X connect 59 0 12 0;
#X connect 60 0 71 0;
#X connect 61 0 60 1;
#X connect 62 0 78 0;
#X connect 62 0 72 0;
#X connect 63 0 75 0;
#X connect 64 0 76 0;
#X connect 65 0 30 0;
#X connect 66 0 67 0;
#X connect 67 0 68 0;
#X connect 67 1 68 1;
#X connect 68 0 65 0;
#X connect 70 0 0 0;
#X connect 71 0 11 0;
#X connect 73 0 45 0;
#X connect 74 0 64 0;
#X connect 75 0 89 0;
#X connect 76 0 90 0;
#X connect 77 0 42 1;
#X connect 77 0 68 0;
#X connect 78 0 67 0;
#X connect 80 0 81 0;
#X connect 81 0 83 0;
#X connect 82 0 81 1;
#X connect 83 0 0 1;
#X connect 84 0 85 0;
#X connect 85 0 87 0;
#X connect 86 0 85 1;
#X connect 87 0 11 1;
#X connect 89 0 49 0;
#X connect 90 0 60 0;
#X connect 91 0 4 0;
