{
	"patcher" : 	{
		"fileversion" : 1,
		"appversion" : 		{
			"major" : 7,
			"minor" : 0,
			"revision" : 4,
			"architecture" : "x86",
			"modernui" : 1
		}
,
		"rect" : [ 480.0, 177.0, 926.0, 575.0 ],
		"bglocked" : 0,
		"openinpresentation" : 0,
		"default_fontsize" : 12.0,
		"default_fontface" : 0,
		"default_fontname" : "Arial",
		"gridonopen" : 1,
		"gridsize" : [ 15.0, 15.0 ],
		"gridsnaponopen" : 1,
		"objectsnaponopen" : 1,
		"statusbarvisible" : 2,
		"toolbarvisible" : 1,
		"lefttoolbarpinned" : 0,
		"toptoolbarpinned" : 0,
		"righttoolbarpinned" : 0,
		"bottomtoolbarpinned" : 0,
		"toolbars_unpinned_last_save" : 0,
		"tallnewobj" : 0,
		"boxanimatetime" : 200,
		"enablehscroll" : 1,
		"enablevscroll" : 1,
		"devicewidth" : 0.0,
		"description" : "",
		"digest" : "",
		"tags" : "",
		"style" : "",
		"subpatcher_template" : "",
		"boxes" : [ 			{
				"box" : 				{
					"id" : "obj-48",
					"maxclass" : "newobj",
					"numinlets" : 2,
					"numoutlets" : 1,
					"outlettype" : [ "signal" ],
					"patching_rect" : [ 488.0, 126.0, 60.0, 22.0 ],
					"style" : "",
					"text" : "*~ -0.053"
				}

			}
, 			{
				"box" : 				{
					"id" : "obj-47",
					"maxclass" : "newobj",
					"numinlets" : 2,
					"numoutlets" : 1,
					"outlettype" : [ "signal" ],
					"patching_rect" : [ 488.0, 95.0, 56.0, 22.0 ],
					"style" : "",
					"text" : "*~ 0.053"
				}

			}
, 			{
				"box" : 				{
					"id" : "obj-41",
					"maxclass" : "newobj",
					"numinlets" : 2,
					"numoutlets" : 1,
					"outlettype" : [ "signal" ],
					"patching_rect" : [ 156.0, 188.0, 66.0, 22.0 ],
					"style" : "",
					"text" : "*~ -0.1732"
				}

			}
, 			{
				"box" : 				{
					"id" : "obj-40",
					"maxclass" : "newobj",
					"numinlets" : 2,
					"numoutlets" : 1,
					"outlettype" : [ "signal" ],
					"patching_rect" : [ 156.0, 150.0, 66.0, 22.0 ],
					"style" : "",
					"text" : "*~ -0.0718"
				}

			}
, 			{
				"box" : 				{
					"id" : "obj-39",
					"maxclass" : "newobj",
					"numinlets" : 2,
					"numoutlets" : 1,
					"outlettype" : [ "signal" ],
					"patching_rect" : [ 156.0, 120.0, 62.0, 22.0 ],
					"style" : "",
					"text" : "*~ 0.0718"
				}

			}
, 			{
				"box" : 				{
					"id" : "obj-38",
					"maxclass" : "newobj",
					"numinlets" : 2,
					"numoutlets" : 1,
					"outlettype" : [ "signal" ],
					"patching_rect" : [ 156.0, 83.0, 62.0, 22.0 ],
					"style" : "",
					"text" : "*~ 0.1732"
				}

			}
, 			{
				"box" : 				{
					"comment" : "",
					"id" : "obj-73",
					"maxclass" : "inlet",
					"numinlets" : 0,
					"numoutlets" : 1,
					"outlettype" : [ "signal" ],
					"patching_rect" : [ 823.0, 48.0, 30.0, 30.0 ],
					"style" : ""
				}

			}
, 			{
				"box" : 				{
					"comment" : "",
					"id" : "obj-74",
					"maxclass" : "inlet",
					"numinlets" : 0,
					"numoutlets" : 1,
					"outlettype" : [ "signal" ],
					"patching_rect" : [ 709.0, 48.0, 30.0, 30.0 ],
					"style" : ""
				}

			}
, 			{
				"box" : 				{
					"comment" : "",
					"id" : "obj-75",
					"maxclass" : "inlet",
					"numinlets" : 0,
					"numoutlets" : 1,
					"outlettype" : [ "signal" ],
					"patching_rect" : [ 602.0, 48.0, 30.0, 30.0 ],
					"style" : ""
				}

			}
, 			{
				"box" : 				{
					"comment" : "",
					"id" : "obj-76",
					"maxclass" : "inlet",
					"numinlets" : 0,
					"numoutlets" : 1,
					"outlettype" : [ "signal" ],
					"patching_rect" : [ 488.0, 48.0, 30.0, 30.0 ],
					"style" : ""
				}

			}
, 			{
				"box" : 				{
					"comment" : "",
					"id" : "obj-71",
					"maxclass" : "inlet",
					"numinlets" : 0,
					"numoutlets" : 1,
					"outlettype" : [ "signal" ],
					"patching_rect" : [ 380.0, 48.0, 30.0, 30.0 ],
					"style" : ""
				}

			}
, 			{
				"box" : 				{
					"comment" : "",
					"id" : "obj-72",
					"maxclass" : "inlet",
					"numinlets" : 0,
					"numoutlets" : 1,
					"outlettype" : [ "signal" ],
					"patching_rect" : [ 263.0, 48.0, 30.0, 30.0 ],
					"style" : ""
				}

			}
, 			{
				"box" : 				{
					"comment" : "",
					"id" : "obj-70",
					"maxclass" : "inlet",
					"numinlets" : 0,
					"numoutlets" : 1,
					"outlettype" : [ "signal" ],
					"patching_rect" : [ 156.0, 48.0, 30.0, 30.0 ],
					"style" : ""
				}

			}
, 			{
				"box" : 				{
					"comment" : "",
					"id" : "obj-69",
					"maxclass" : "inlet",
					"numinlets" : 0,
					"numoutlets" : 1,
					"outlettype" : [ "signal" ],
					"patching_rect" : [ 42.0, 48.0, 30.0, 30.0 ],
					"style" : ""
				}

			}
, 			{
				"box" : 				{
					"id" : "obj-68",
					"maxclass" : "comment",
					"numinlets" : 1,
					"numoutlets" : 0,
					"patching_rect" : [ 833.0, 398.0, 32.0, 20.0 ],
					"style" : "",
					"text" : "FR"
				}

			}
, 			{
				"box" : 				{
					"id" : "obj-66",
					"maxclass" : "comment",
					"numinlets" : 1,
					"numoutlets" : 0,
					"patching_rect" : [ 495.0, 402.0, 73.0, 20.0 ],
					"style" : "",
					"text" : "RR (SSE)"
				}

			}
, 			{
				"box" : 				{
					"id" : "obj-64",
					"maxclass" : "comment",
					"numinlets" : 1,
					"numoutlets" : 0,
					"patching_rect" : [ 387.0, 402.0, 68.0, 20.0 ],
					"style" : "",
					"text" : "RL (SSW)"
				}

			}
, 			{
				"box" : 				{
					"id" : "obj-62",
					"maxclass" : "comment",
					"numinlets" : 1,
					"numoutlets" : 0,
					"patching_rect" : [ 36.0, 402.0, 68.0, 20.0 ],
					"style" : "",
					"text" : "FL (NNW)"
				}

			}
, 			{
				"box" : 				{
					"id" : "obj-60",
					"maxclass" : "newobj",
					"numinlets" : 2,
					"numoutlets" : 1,
					"outlettype" : [ "signal" ],
					"patching_rect" : [ 823.5, 192.0, 62.0, 22.0 ],
					"style" : "",
					"text" : "*~ 0.0048"
				}

			}
, 			{
				"box" : 				{
					"id" : "obj-59",
					"maxclass" : "newobj",
					"numinlets" : 2,
					"numoutlets" : 1,
					"outlettype" : [ "signal" ],
					"patching_rect" : [ 822.0, 159.0, 65.0, 22.0 ],
					"style" : "",
					"text" : "*~ -0.0115"
				}

			}
, 			{
				"box" : 				{
					"id" : "obj-58",
					"maxclass" : "newobj",
					"numinlets" : 2,
					"numoutlets" : 1,
					"outlettype" : [ "signal" ],
					"patching_rect" : [ 822.0, 126.0, 66.0, 22.0 ],
					"style" : "",
					"text" : "*~ -0.0048"
				}

			}
, 			{
				"box" : 				{
					"id" : "obj-57",
					"maxclass" : "newobj",
					"numinlets" : 2,
					"numoutlets" : 1,
					"outlettype" : [ "signal" ],
					"patching_rect" : [ 822.0, 90.0, 61.0, 22.0 ],
					"style" : "",
					"text" : "*~ 0.0115"
				}

			}
, 			{
				"box" : 				{
					"id" : "obj-56",
					"maxclass" : "newobj",
					"numinlets" : 2,
					"numoutlets" : 1,
					"outlettype" : [ "signal" ],
					"patching_rect" : [ 709.0, 196.0, 61.0, 22.0 ],
					"style" : "",
					"text" : "*~ 0.0115"
				}

			}
, 			{
				"box" : 				{
					"id" : "obj-55",
					"maxclass" : "newobj",
					"numinlets" : 2,
					"numoutlets" : 1,
					"outlettype" : [ "signal" ],
					"patching_rect" : [ 709.0, 159.0, 66.0, 22.0 ],
					"style" : "",
					"text" : "*~ -0.0048"
				}

			}
, 			{
				"box" : 				{
					"id" : "obj-54",
					"maxclass" : "newobj",
					"numinlets" : 2,
					"numoutlets" : 1,
					"outlettype" : [ "signal" ],
					"patching_rect" : [ 709.0, 126.0, 65.0, 22.0 ],
					"style" : "",
					"text" : "*~ -0.0115"
				}

			}
, 			{
				"box" : 				{
					"id" : "obj-53",
					"maxclass" : "newobj",
					"numinlets" : 2,
					"numoutlets" : 1,
					"outlettype" : [ "signal" ],
					"patching_rect" : [ 709.0, 90.0, 62.0, 22.0 ],
					"style" : "",
					"text" : "*~ 0.0048"
				}

			}
, 			{
				"box" : 				{
					"id" : "obj-49",
					"maxclass" : "newobj",
					"numinlets" : 2,
					"numoutlets" : 1,
					"outlettype" : [ "signal" ],
					"patching_rect" : [ 602.0, 126.0, 60.0, 22.0 ],
					"style" : "",
					"text" : "*~ -0.053"
				}

			}
, 			{
				"box" : 				{
					"id" : "obj-50",
					"maxclass" : "newobj",
					"numinlets" : 2,
					"numoutlets" : 1,
					"outlettype" : [ "signal" ],
					"patching_rect" : [ 602.0, 95.0, 56.0, 22.0 ],
					"style" : "",
					"text" : "*~ 0.053"
				}

			}
, 			{
				"box" : 				{
					"id" : "obj-46",
					"maxclass" : "newobj",
					"numinlets" : 2,
					"numoutlets" : 1,
					"outlettype" : [ "signal" ],
					"patching_rect" : [ 263.0, 188.0, 66.0, 22.0 ],
					"style" : "",
					"text" : "*~ -0.1732"
				}

			}
, 			{
				"box" : 				{
					"id" : "obj-45",
					"maxclass" : "newobj",
					"numinlets" : 2,
					"numoutlets" : 1,
					"outlettype" : [ "signal" ],
					"patching_rect" : [ 263.0, 154.0, 66.0, 22.0 ],
					"style" : "",
					"text" : "*~ -0.0718"
				}

			}
, 			{
				"box" : 				{
					"id" : "obj-44",
					"maxclass" : "newobj",
					"numinlets" : 2,
					"numoutlets" : 1,
					"outlettype" : [ "signal" ],
					"patching_rect" : [ 263.0, 120.0, 62.0, 22.0 ],
					"style" : "",
					"text" : "*~ 0.1732"
				}

			}
, 			{
				"box" : 				{
					"id" : "obj-43",
					"maxclass" : "newobj",
					"numinlets" : 2,
					"numoutlets" : 1,
					"outlettype" : [ "signal" ],
					"patching_rect" : [ 263.0, 90.0, 62.0, 22.0 ],
					"style" : "",
					"text" : "*~ 0.0718"
				}

			}
, 			{
				"box" : 				{
					"id" : "obj-37",
					"maxclass" : "newobj",
					"numinlets" : 2,
					"numoutlets" : 1,
					"outlettype" : [ "signal" ],
					"patching_rect" : [ 42.0, 90.0, 62.0, 22.0 ],
					"style" : "",
					"text" : "*~ 0.1768"
				}

			}
, 			{
				"box" : 				{
					"comment" : "",
					"id" : "obj-25",
					"maxclass" : "outlet",
					"numinlets" : 1,
					"numoutlets" : 0,
					"patching_rect" : [ 833.0, 428.0, 30.0, 30.0 ],
					"style" : ""
				}

			}
, 			{
				"box" : 				{
					"comment" : "",
					"id" : "obj-26",
					"maxclass" : "outlet",
					"numinlets" : 1,
					"numoutlets" : 0,
					"patching_rect" : [ 720.0, 428.0, 30.0, 30.0 ],
					"style" : ""
				}

			}
, 			{
				"box" : 				{
					"comment" : "",
					"id" : "obj-27",
					"maxclass" : "outlet",
					"numinlets" : 1,
					"numoutlets" : 0,
					"patching_rect" : [ 613.0, 428.0, 30.0, 30.0 ],
					"style" : ""
				}

			}
, 			{
				"box" : 				{
					"comment" : "",
					"id" : "obj-28",
					"maxclass" : "outlet",
					"numinlets" : 1,
					"numoutlets" : 0,
					"patching_rect" : [ 499.0, 428.0, 30.0, 30.0 ],
					"style" : ""
				}

			}
, 			{
				"box" : 				{
					"comment" : "",
					"id" : "obj-23",
					"maxclass" : "outlet",
					"numinlets" : 1,
					"numoutlets" : 0,
					"patching_rect" : [ 387.0, 428.0, 30.0, 30.0 ],
					"style" : ""
				}

			}
, 			{
				"box" : 				{
					"comment" : "",
					"id" : "obj-24",
					"maxclass" : "outlet",
					"numinlets" : 1,
					"numoutlets" : 0,
					"patching_rect" : [ 274.0, 428.0, 30.0, 30.0 ],
					"style" : ""
				}

			}
, 			{
				"box" : 				{
					"fontname" : "Andale Mono",
					"id" : "obj-12",
					"maxclass" : "comment",
					"numinlets" : 1,
					"numoutlets" : 0,
					"patching_rect" : [ 40.0, 8.0, 394.0, 20.0 ],
					"style" : "",
					"text" : "3rd order - octagon (no height) // W X Y U V P Q"
				}

			}
, 			{
				"box" : 				{
					"fontname" : "Andale Mono",
					"id" : "obj-10",
					"maxclass" : "comment",
					"numinlets" : 1,
					"numoutlets" : 0,
					"patching_rect" : [ 27.0, 516.0, 348.0, 20.0 ],
					"style" : "",
					"text" : "3rd order - pans anti-clockwise"
				}

			}
, 			{
				"box" : 				{
					"fontname" : "Andale Mono",
					"id" : "obj-7",
					"maxclass" : "comment",
					"numinlets" : 1,
					"numoutlets" : 0,
					"patching_rect" : [ 529.0, 8.0, 336.0, 20.0 ],
					"style" : "",
					"text" : "http://www.blueripplesound.com/decoding"
				}

			}
, 			{
				"box" : 				{
					"fontname" : "Andale Mono",
					"id" : "obj-3",
					"linecount" : 2,
					"maxclass" : "comment",
					"numinlets" : 1,
					"numoutlets" : 0,
					"patching_rect" : [ 27.0, 478.0, 700.0, 33.0 ],
					"style" : "",
					"text" : "The speakers here are assumed to be set out anticlockwise, with the first speaker roughly at 11 o'clock and the last one roughly at 1 o'clock. This is an \"in-phase\" decoder."
				}

			}
, 			{
				"box" : 				{
					"comment" : "",
					"id" : "obj-16",
					"maxclass" : "outlet",
					"numinlets" : 1,
					"numoutlets" : 0,
					"patching_rect" : [ 167.0, 428.0, 30.0, 30.0 ],
					"style" : ""
				}

			}
, 			{
				"box" : 				{
					"comment" : "",
					"id" : "obj-14",
					"maxclass" : "outlet",
					"numinlets" : 1,
					"numoutlets" : 0,
					"patching_rect" : [ 53.0, 428.0, 30.0, 30.0 ],
					"style" : ""
				}

			}
 ],
		"lines" : [ 			{
				"patchline" : 				{
					"destination" : [ "obj-14", 0 ],
					"disabled" : 0,
					"hidden" : 0,
					"midpoints" : [ 51.5, 387.0, 33.0, 387.0, 33.0, 423.0, 62.5, 423.0 ],
					"source" : [ "obj-37", 0 ]
				}

			}
, 			{
				"patchline" : 				{
					"destination" : [ "obj-16", 0 ],
					"disabled" : 0,
					"hidden" : 0,
					"midpoints" : [ 51.5, 387.0, 176.5, 387.0 ],
					"source" : [ "obj-37", 0 ]
				}

			}
, 			{
				"patchline" : 				{
					"destination" : [ "obj-23", 0 ],
					"disabled" : 0,
					"hidden" : 0,
					"midpoints" : [ 51.5, 387.0, 372.0, 387.0, 372.0, 423.0, 396.5, 423.0 ],
					"source" : [ "obj-37", 0 ]
				}

			}
, 			{
				"patchline" : 				{
					"destination" : [ "obj-24", 0 ],
					"disabled" : 0,
					"hidden" : 0,
					"midpoints" : [ 51.5, 387.0, 283.5, 387.0 ],
					"source" : [ "obj-37", 0 ]
				}

			}
, 			{
				"patchline" : 				{
					"destination" : [ "obj-25", 0 ],
					"disabled" : 0,
					"hidden" : 0,
					"midpoints" : [ 51.5, 387.0, 819.0, 387.0, 819.0, 423.0, 842.5, 423.0 ],
					"source" : [ "obj-37", 0 ]
				}

			}
, 			{
				"patchline" : 				{
					"destination" : [ "obj-26", 0 ],
					"disabled" : 0,
					"hidden" : 0,
					"midpoints" : [ 51.5, 387.0, 729.5, 387.0 ],
					"source" : [ "obj-37", 0 ]
				}

			}
, 			{
				"patchline" : 				{
					"destination" : [ "obj-27", 0 ],
					"disabled" : 0,
					"hidden" : 0,
					"midpoints" : [ 51.5, 387.0, 622.5, 387.0 ],
					"source" : [ "obj-37", 0 ]
				}

			}
, 			{
				"patchline" : 				{
					"destination" : [ "obj-28", 0 ],
					"disabled" : 0,
					"hidden" : 0,
					"midpoints" : [ 51.5, 387.0, 480.0, 387.0, 480.0, 423.0, 508.5, 423.0 ],
					"source" : [ "obj-37", 0 ]
				}

			}
, 			{
				"patchline" : 				{
					"destination" : [ "obj-14", 0 ],
					"disabled" : 0,
					"hidden" : 0,
					"midpoints" : [ 165.5, 108.0, 114.0, 108.0, 114.0, 423.0, 62.5, 423.0 ],
					"source" : [ "obj-38", 0 ]
				}

			}
, 			{
				"patchline" : 				{
					"destination" : [ "obj-25", 0 ],
					"disabled" : 0,
					"hidden" : 0,
					"midpoints" : [ 165.5, 108.0, 249.0, 108.0, 249.0, 387.0, 819.0, 387.0, 819.0, 423.0, 842.5, 423.0 ],
					"source" : [ "obj-38", 0 ]
				}

			}
, 			{
				"patchline" : 				{
					"destination" : [ "obj-16", 0 ],
					"disabled" : 0,
					"hidden" : 0,
					"midpoints" : [ 165.5, 144.0, 141.0, 144.0, 141.0, 414.0, 176.5, 414.0 ],
					"source" : [ "obj-39", 0 ]
				}

			}
, 			{
				"patchline" : 				{
					"destination" : [ "obj-26", 0 ],
					"disabled" : 0,
					"hidden" : 0,
					"midpoints" : [ 165.5, 144.0, 249.0, 144.0, 249.0, 387.0, 729.5, 387.0 ],
					"source" : [ "obj-39", 0 ]
				}

			}
, 			{
				"patchline" : 				{
					"destination" : [ "obj-24", 0 ],
					"disabled" : 0,
					"hidden" : 0,
					"midpoints" : [ 165.5, 174.0, 249.0, 174.0, 249.0, 414.0, 283.5, 414.0 ],
					"source" : [ "obj-40", 0 ]
				}

			}
, 			{
				"patchline" : 				{
					"destination" : [ "obj-27", 0 ],
					"disabled" : 0,
					"hidden" : 0,
					"midpoints" : [ 165.5, 174.0, 249.0, 174.0, 249.0, 387.0, 622.5, 387.0 ],
					"source" : [ "obj-40", 0 ]
				}

			}
, 			{
				"patchline" : 				{
					"destination" : [ "obj-23", 0 ],
					"disabled" : 0,
					"hidden" : 0,
					"midpoints" : [ 165.5, 414.0, 372.0, 414.0, 372.0, 423.0, 396.5, 423.0 ],
					"source" : [ "obj-41", 0 ]
				}

			}
, 			{
				"patchline" : 				{
					"destination" : [ "obj-28", 0 ],
					"disabled" : 0,
					"hidden" : 0,
					"midpoints" : [ 165.5, 387.0, 480.0, 387.0, 480.0, 423.0, 508.5, 423.0 ],
					"source" : [ "obj-41", 0 ]
				}

			}
, 			{
				"patchline" : 				{
					"destination" : [ "obj-14", 0 ],
					"disabled" : 0,
					"hidden" : 0,
					"midpoints" : [ 272.5, 114.0, 234.0, 114.0, 234.0, 414.0, 114.0, 414.0, 114.0, 423.0, 62.5, 423.0 ],
					"source" : [ "obj-43", 0 ]
				}

			}
, 			{
				"patchline" : 				{
					"destination" : [ "obj-23", 0 ],
					"disabled" : 0,
					"hidden" : 0,
					"midpoints" : [ 272.5, 114.0, 372.0, 114.0, 372.0, 423.0, 396.5, 423.0 ],
					"source" : [ "obj-43", 0 ]
				}

			}
, 			{
				"patchline" : 				{
					"destination" : [ "obj-16", 0 ],
					"disabled" : 0,
					"hidden" : 0,
					"midpoints" : [ 272.5, 144.0, 234.0, 144.0, 234.0, 414.0, 176.5, 414.0 ],
					"source" : [ "obj-44", 0 ]
				}

			}
, 			{
				"patchline" : 				{
					"destination" : [ "obj-24", 0 ],
					"disabled" : 0,
					"hidden" : 0,
					"midpoints" : [ 272.5, 144.0, 249.0, 144.0, 249.0, 414.0, 283.5, 414.0 ],
					"source" : [ "obj-44", 0 ]
				}

			}
, 			{
				"patchline" : 				{
					"destination" : [ "obj-25", 0 ],
					"disabled" : 0,
					"hidden" : 0,
					"midpoints" : [ 272.5, 177.0, 249.0, 177.0, 249.0, 387.0, 819.0, 387.0, 819.0, 423.0, 842.5, 423.0 ],
					"source" : [ "obj-45", 0 ]
				}

			}
, 			{
				"patchline" : 				{
					"destination" : [ "obj-28", 0 ],
					"disabled" : 0,
					"hidden" : 0,
					"midpoints" : [ 272.5, 177.0, 249.0, 177.0, 249.0, 387.0, 480.0, 387.0, 480.0, 423.0, 508.5, 423.0 ],
					"source" : [ "obj-45", 0 ]
				}

			}
, 			{
				"patchline" : 				{
					"destination" : [ "obj-26", 0 ],
					"disabled" : 0,
					"hidden" : 0,
					"midpoints" : [ 272.5, 387.0, 729.5, 387.0 ],
					"source" : [ "obj-46", 0 ]
				}

			}
, 			{
				"patchline" : 				{
					"destination" : [ "obj-27", 0 ],
					"disabled" : 0,
					"hidden" : 0,
					"midpoints" : [ 272.5, 387.0, 622.5, 387.0 ],
					"source" : [ "obj-46", 0 ]
				}

			}
, 			{
				"patchline" : 				{
					"destination" : [ "obj-14", 0 ],
					"disabled" : 0,
					"hidden" : 0,
					"midpoints" : [ 497.5, 120.0, 339.0, 120.0, 339.0, 414.0, 114.0, 414.0, 114.0, 423.0, 62.5, 423.0 ],
					"source" : [ "obj-47", 0 ]
				}

			}
, 			{
				"patchline" : 				{
					"destination" : [ "obj-23", 0 ],
					"disabled" : 0,
					"hidden" : 0,
					"midpoints" : [ 497.5, 120.0, 465.0, 120.0, 465.0, 432.0, 417.0, 432.0, 417.0, 423.0, 396.5, 423.0 ],
					"source" : [ "obj-47", 0 ]
				}

			}
, 			{
				"patchline" : 				{
					"destination" : [ "obj-25", 0 ],
					"disabled" : 0,
					"hidden" : 0,
					"midpoints" : [ 497.5, 120.0, 588.0, 120.0, 588.0, 414.0, 819.0, 414.0, 819.0, 423.0, 842.5, 423.0 ],
					"source" : [ "obj-47", 0 ]
				}

			}
, 			{
				"patchline" : 				{
					"destination" : [ "obj-28", 0 ],
					"disabled" : 0,
					"hidden" : 0,
					"midpoints" : [ 497.5, 120.0, 474.0, 120.0, 474.0, 423.0, 508.5, 423.0 ],
					"source" : [ "obj-47", 0 ]
				}

			}
, 			{
				"patchline" : 				{
					"destination" : [ "obj-16", 0 ],
					"disabled" : 0,
					"hidden" : 0,
					"midpoints" : [ 497.5, 387.0, 176.5, 387.0 ],
					"source" : [ "obj-48", 0 ]
				}

			}
, 			{
				"patchline" : 				{
					"destination" : [ "obj-24", 0 ],
					"disabled" : 0,
					"hidden" : 0,
					"midpoints" : [ 497.5, 387.0, 283.5, 387.0 ],
					"source" : [ "obj-48", 0 ]
				}

			}
, 			{
				"patchline" : 				{
					"destination" : [ "obj-26", 0 ],
					"disabled" : 0,
					"hidden" : 0,
					"midpoints" : [ 497.5, 387.0, 729.5, 387.0 ],
					"source" : [ "obj-48", 0 ]
				}

			}
, 			{
				"patchline" : 				{
					"destination" : [ "obj-27", 0 ],
					"disabled" : 0,
					"hidden" : 0,
					"midpoints" : [ 497.5, 387.0, 622.5, 387.0 ],
					"source" : [ "obj-48", 0 ]
				}

			}
, 			{
				"patchline" : 				{
					"destination" : [ "obj-23", 0 ],
					"disabled" : 0,
					"hidden" : 0,
					"midpoints" : [ 611.5, 387.0, 465.0, 387.0, 465.0, 432.0, 417.0, 432.0, 417.0, 423.0, 396.5, 423.0 ],
					"source" : [ "obj-49", 0 ]
				}

			}
, 			{
				"patchline" : 				{
					"destination" : [ "obj-24", 0 ],
					"disabled" : 0,
					"hidden" : 0,
					"midpoints" : [ 611.5, 387.0, 283.5, 387.0 ],
					"source" : [ "obj-49", 0 ]
				}

			}
, 			{
				"patchline" : 				{
					"destination" : [ "obj-25", 0 ],
					"disabled" : 0,
					"hidden" : 0,
					"midpoints" : [ 611.5, 414.0, 819.0, 414.0, 819.0, 423.0, 842.5, 423.0 ],
					"source" : [ "obj-49", 0 ]
				}

			}
, 			{
				"patchline" : 				{
					"destination" : [ "obj-26", 0 ],
					"disabled" : 0,
					"hidden" : 0,
					"midpoints" : [ 611.5, 414.0, 729.5, 414.0 ],
					"source" : [ "obj-49", 0 ]
				}

			}
, 			{
				"patchline" : 				{
					"destination" : [ "obj-14", 0 ],
					"disabled" : 0,
					"hidden" : 0,
					"midpoints" : [ 611.5, 120.0, 558.0, 120.0, 558.0, 387.0, 114.0, 387.0, 114.0, 423.0, 62.5, 423.0 ],
					"source" : [ "obj-50", 0 ]
				}

			}
, 			{
				"patchline" : 				{
					"destination" : [ "obj-16", 0 ],
					"disabled" : 0,
					"hidden" : 0,
					"midpoints" : [ 611.5, 120.0, 558.0, 120.0, 558.0, 387.0, 176.5, 387.0 ],
					"source" : [ "obj-50", 0 ]
				}

			}
, 			{
				"patchline" : 				{
					"destination" : [ "obj-27", 0 ],
					"disabled" : 0,
					"hidden" : 0,
					"midpoints" : [ 611.5, 120.0, 588.0, 120.0, 588.0, 414.0, 622.5, 414.0 ],
					"source" : [ "obj-50", 0 ]
				}

			}
, 			{
				"patchline" : 				{
					"destination" : [ "obj-28", 0 ],
					"disabled" : 0,
					"hidden" : 0,
					"midpoints" : [ 611.5, 120.0, 579.0, 120.0, 579.0, 432.0, 531.0, 432.0, 531.0, 423.0, 508.5, 423.0 ],
					"source" : [ "obj-50", 0 ]
				}

			}
, 			{
				"patchline" : 				{
					"destination" : [ "obj-14", 0 ],
					"disabled" : 0,
					"hidden" : 0,
					"midpoints" : [ 718.5, 114.0, 672.0, 114.0, 672.0, 387.0, 114.0, 387.0, 114.0, 423.0, 62.5, 423.0 ],
					"source" : [ "obj-53", 0 ]
				}

			}
, 			{
				"patchline" : 				{
					"destination" : [ "obj-24", 0 ],
					"disabled" : 0,
					"hidden" : 0,
					"midpoints" : [ 718.5, 114.0, 672.0, 114.0, 672.0, 387.0, 283.5, 387.0 ],
					"source" : [ "obj-53", 0 ]
				}

			}
, 			{
				"patchline" : 				{
					"destination" : [ "obj-16", 0 ],
					"disabled" : 0,
					"hidden" : 0,
					"midpoints" : [ 718.5, 150.0, 672.0, 150.0, 672.0, 387.0, 176.5, 387.0 ],
					"source" : [ "obj-54", 0 ]
				}

			}
, 			{
				"patchline" : 				{
					"destination" : [ "obj-23", 0 ],
					"disabled" : 0,
					"hidden" : 0,
					"midpoints" : [ 718.5, 150.0, 672.0, 150.0, 672.0, 387.0, 465.0, 387.0, 465.0, 432.0, 417.0, 432.0, 417.0, 423.0, 396.5, 423.0 ],
					"source" : [ "obj-54", 0 ]
				}

			}
, 			{
				"patchline" : 				{
					"destination" : [ "obj-26", 0 ],
					"disabled" : 0,
					"hidden" : 0,
					"midpoints" : [ 718.5, 183.0, 696.0, 183.0, 696.0, 414.0, 729.5, 414.0 ],
					"source" : [ "obj-55", 0 ]
				}

			}
, 			{
				"patchline" : 				{
					"destination" : [ "obj-28", 0 ],
					"disabled" : 0,
					"hidden" : 0,
					"midpoints" : [ 718.5, 183.0, 579.0, 183.0, 579.0, 432.0, 531.0, 432.0, 531.0, 423.0, 508.5, 423.0 ],
					"source" : [ "obj-55", 0 ]
				}

			}
, 			{
				"patchline" : 				{
					"destination" : [ "obj-25", 0 ],
					"disabled" : 0,
					"hidden" : 0,
					"midpoints" : [ 718.5, 414.0, 819.0, 414.0, 819.0, 423.0, 842.5, 423.0 ],
					"source" : [ "obj-56", 0 ]
				}

			}
, 			{
				"patchline" : 				{
					"destination" : [ "obj-27", 0 ],
					"disabled" : 0,
					"hidden" : 0,
					"midpoints" : [ 718.5, 414.0, 622.5, 414.0 ],
					"source" : [ "obj-56", 0 ]
				}

			}
, 			{
				"patchline" : 				{
					"destination" : [ "obj-14", 0 ],
					"disabled" : 0,
					"hidden" : 0,
					"midpoints" : [ 831.5, 114.0, 786.0, 114.0, 786.0, 387.0, 114.0, 387.0, 114.0, 423.0, 62.5, 423.0 ],
					"source" : [ "obj-57", 0 ]
				}

			}
, 			{
				"patchline" : 				{
					"destination" : [ "obj-26", 0 ],
					"disabled" : 0,
					"hidden" : 0,
					"midpoints" : [ 831.5, 114.0, 786.0, 114.0, 786.0, 414.0, 729.5, 414.0 ],
					"source" : [ "obj-57", 0 ]
				}

			}
, 			{
				"patchline" : 				{
					"destination" : [ "obj-16", 0 ],
					"disabled" : 0,
					"hidden" : 0,
					"midpoints" : [ 831.5, 150.0, 786.0, 150.0, 786.0, 387.0, 176.5, 387.0 ],
					"source" : [ "obj-58", 0 ]
				}

			}
, 			{
				"patchline" : 				{
					"destination" : [ "obj-25", 0 ],
					"disabled" : 0,
					"hidden" : 0,
					"midpoints" : [ 831.5, 150.0, 807.0, 150.0, 807.0, 423.0, 842.5, 423.0 ],
					"source" : [ "obj-58", 0 ]
				}

			}
, 			{
				"patchline" : 				{
					"destination" : [ "obj-24", 0 ],
					"disabled" : 0,
					"hidden" : 0,
					"midpoints" : [ 831.5, 183.0, 786.0, 183.0, 786.0, 387.0, 283.5, 387.0 ],
					"source" : [ "obj-59", 0 ]
				}

			}
, 			{
				"patchline" : 				{
					"destination" : [ "obj-28", 0 ],
					"disabled" : 0,
					"hidden" : 0,
					"midpoints" : [ 831.5, 183.0, 786.0, 183.0, 786.0, 414.0, 579.0, 414.0, 579.0, 432.0, 531.0, 432.0, 531.0, 423.0, 508.5, 423.0 ],
					"source" : [ "obj-59", 0 ]
				}

			}
, 			{
				"patchline" : 				{
					"destination" : [ "obj-23", 0 ],
					"disabled" : 0,
					"hidden" : 0,
					"midpoints" : [ 833.0, 384.0, 465.0, 384.0, 465.0, 432.0, 417.0, 432.0, 417.0, 423.0, 396.5, 423.0 ],
					"source" : [ "obj-60", 0 ]
				}

			}
, 			{
				"patchline" : 				{
					"destination" : [ "obj-27", 0 ],
					"disabled" : 0,
					"hidden" : 0,
					"midpoints" : [ 833.0, 384.0, 622.5, 384.0 ],
					"source" : [ "obj-60", 0 ]
				}

			}
, 			{
				"patchline" : 				{
					"destination" : [ "obj-37", 0 ],
					"disabled" : 0,
					"hidden" : 0,
					"midpoints" : [ 51.5, 81.0, 51.5, 81.0 ],
					"source" : [ "obj-69", 0 ]
				}

			}
, 			{
				"patchline" : 				{
					"destination" : [ "obj-38", 0 ],
					"disabled" : 0,
					"hidden" : 0,
					"midpoints" : [ 165.5, 81.0, 165.5, 81.0 ],
					"source" : [ "obj-70", 0 ]
				}

			}
, 			{
				"patchline" : 				{
					"destination" : [ "obj-39", 0 ],
					"disabled" : 0,
					"hidden" : 0,
					"midpoints" : [ 165.5, 78.0, 153.0, 78.0, 153.0, 111.0, 165.5, 111.0 ],
					"source" : [ "obj-70", 0 ]
				}

			}
, 			{
				"patchline" : 				{
					"destination" : [ "obj-40", 0 ],
					"disabled" : 0,
					"hidden" : 0,
					"midpoints" : [ 165.5, 78.0, 141.0, 78.0, 141.0, 144.0, 165.5, 144.0 ],
					"source" : [ "obj-70", 0 ]
				}

			}
, 			{
				"patchline" : 				{
					"destination" : [ "obj-41", 0 ],
					"disabled" : 0,
					"hidden" : 0,
					"midpoints" : [ 165.5, 78.0, 141.0, 78.0, 141.0, 183.0, 165.5, 183.0 ],
					"source" : [ "obj-70", 0 ]
				}

			}
, 			{
				"patchline" : 				{
					"destination" : [ "obj-43", 0 ],
					"disabled" : 0,
					"hidden" : 0,
					"midpoints" : [ 272.5, 81.0, 272.5, 81.0 ],
					"source" : [ "obj-72", 0 ]
				}

			}
, 			{
				"patchline" : 				{
					"destination" : [ "obj-44", 0 ],
					"disabled" : 0,
					"hidden" : 0,
					"midpoints" : [ 272.5, 81.0, 249.0, 81.0, 249.0, 114.0, 272.5, 114.0 ],
					"source" : [ "obj-72", 0 ]
				}

			}
, 			{
				"patchline" : 				{
					"destination" : [ "obj-45", 0 ],
					"disabled" : 0,
					"hidden" : 0,
					"midpoints" : [ 272.5, 81.0, 249.0, 81.0, 249.0, 150.0, 272.5, 150.0 ],
					"source" : [ "obj-72", 0 ]
				}

			}
, 			{
				"patchline" : 				{
					"destination" : [ "obj-46", 0 ],
					"disabled" : 0,
					"hidden" : 0,
					"midpoints" : [ 272.5, 81.0, 249.0, 81.0, 249.0, 183.0, 272.5, 183.0 ],
					"source" : [ "obj-72", 0 ]
				}

			}
, 			{
				"patchline" : 				{
					"destination" : [ "obj-57", 0 ],
					"disabled" : 0,
					"hidden" : 0,
					"midpoints" : [ 832.5, 81.0, 831.5, 81.0 ],
					"source" : [ "obj-73", 0 ]
				}

			}
, 			{
				"patchline" : 				{
					"destination" : [ "obj-58", 0 ],
					"disabled" : 0,
					"hidden" : 0,
					"midpoints" : [ 832.5, 87.0, 819.0, 87.0, 819.0, 117.0, 831.5, 117.0 ],
					"source" : [ "obj-73", 0 ]
				}

			}
, 			{
				"patchline" : 				{
					"destination" : [ "obj-53", 0 ],
					"disabled" : 0,
					"hidden" : 0,
					"midpoints" : [ 718.5, 81.0, 718.5, 81.0 ],
					"source" : [ "obj-74", 0 ]
				}

			}
, 			{
				"patchline" : 				{
					"destination" : [ "obj-54", 0 ],
					"disabled" : 0,
					"hidden" : 0,
					"midpoints" : [ 718.5, 81.0, 696.0, 81.0, 696.0, 120.0, 718.5, 120.0 ],
					"source" : [ "obj-74", 0 ]
				}

			}
, 			{
				"patchline" : 				{
					"destination" : [ "obj-55", 0 ],
					"disabled" : 0,
					"hidden" : 0,
					"midpoints" : [ 718.5, 81.0, 696.0, 81.0, 696.0, 153.0, 718.5, 153.0 ],
					"source" : [ "obj-74", 0 ]
				}

			}
, 			{
				"patchline" : 				{
					"destination" : [ "obj-56", 0 ],
					"disabled" : 0,
					"hidden" : 0,
					"midpoints" : [ 718.5, 81.0, 696.0, 81.0, 696.0, 192.0, 718.5, 192.0 ],
					"source" : [ "obj-74", 0 ]
				}

			}
, 			{
				"patchline" : 				{
					"destination" : [ "obj-49", 0 ],
					"disabled" : 0,
					"hidden" : 0,
					"midpoints" : [ 611.5, 81.0, 588.0, 81.0, 588.0, 120.0, 611.5, 120.0 ],
					"source" : [ "obj-75", 0 ]
				}

			}
, 			{
				"patchline" : 				{
					"destination" : [ "obj-50", 0 ],
					"disabled" : 0,
					"hidden" : 0,
					"midpoints" : [ 611.5, 81.0, 611.5, 81.0 ],
					"source" : [ "obj-75", 0 ]
				}

			}
, 			{
				"patchline" : 				{
					"destination" : [ "obj-47", 0 ],
					"disabled" : 0,
					"hidden" : 0,
					"midpoints" : [ 497.5, 81.0, 497.5, 81.0 ],
					"source" : [ "obj-76", 0 ]
				}

			}
, 			{
				"patchline" : 				{
					"destination" : [ "obj-48", 0 ],
					"disabled" : 0,
					"hidden" : 0,
					"midpoints" : [ 497.5, 81.0, 474.0, 81.0, 474.0, 120.0, 497.5, 120.0 ],
					"source" : [ "obj-76", 0 ]
				}

			}
 ]
	}

}
