#N canvas 352 187 596 487 10;
#X obj -1840 459 outlet~;
#X obj -1747 457 outlet~;
#N canvas 378 361 373 79 \$0-grainvoice 1;
#X obj -1800 41 outlet~;
#X obj -1527 40 outlet~;
#X restore -1840 432 pd \$0-grainvoice;
#X text -1294 458 rg '15;
#X obj -1438 62 outlet;
#X obj -1655 24 \$0;
#X msg -1653 302 string1;
#X obj -1715 164 Uzi;
#X obj -1715 114 t b b b;
#X obj -1655 45 s \$0-pid;
#X obj -1841 219 pipe 500;
#X obj -1765 202 t f b;
#X obj -1688 76 s \$0-col;
#X obj -1715 40 t b b;
#X obj -1700 189 s \$0-id;
#X msg -1841 236 connect \$1 0 0 0;
#X msg -1653 280 set \$1;
#X obj -1696 139 \$2;
#X obj -1694 263 t b s;
#X obj -1653 246 symbol \$1;
#X obj -1565 236 \$3;
#X obj -1540 236 \$4;
#X obj -1438 41 pack 0 0;
#X obj -1420 24 t b f;
#X obj -1662 156 s \$0-ng;
#X obj -1420 5 r \$0-ng;
#X msg -1841 253 connect \$1 1 1 0;
#X obj -1512 236 \$5;
#X obj -1480 236 \$6;
#X obj -1653 219 t b b b b b;
#X obj -1537 337 r \$0-id;
#X obj -1653 354 pack s 0 0 f 0 0 0;
#X text -1653 400 source \, max gs \, start-pos (rand) \, SR \, mode
\, id - Don't change creation order of these objects.;
#X obj -1841 394 s;
#X msg -1580 75 pd-1089-grainvoice;
#X obj -1580 58 t b a;
#X msg -1580 41 set pd-\$1-grainvoice;
#X obj -1580 95 symbol;
#X obj -1765 181 + 1;
#X obj -1715 7 loadbang;
#X obj -1580 117 s \$0-spid;
#X obj -1816 377 r \$0-spid;
#X msg -1653 377 obj -1800 20 rg.randgrain~ \$1 \$3 65536 \$2 \$4 \$5
\$6;
#X connect 2 0 0 0;
#X connect 2 1 1 0;
#X connect 5 0 9 0;
#X connect 5 0 22 0;
#X connect 5 0 36 0;
#X connect 6 0 31 0;
#X connect 7 2 14 0;
#X connect 7 2 38 0;
#X connect 8 0 7 0;
#X connect 8 1 17 0;
#X connect 10 0 15 0;
#X connect 10 0 26 0;
#X connect 11 0 10 0;
#X connect 11 1 29 0;
#X connect 13 0 8 0;
#X connect 13 1 12 0;
#X connect 15 0 33 0;
#X connect 16 0 6 0;
#X connect 17 0 7 1;
#X connect 17 0 24 0;
#X connect 18 0 6 0;
#X connect 18 1 16 0;
#X connect 19 0 18 0;
#X connect 20 0 31 1;
#X connect 21 0 31 2;
#X connect 22 0 4 0;
#X connect 23 0 22 0;
#X connect 23 1 22 1;
#X connect 25 0 23 0;
#X connect 26 0 33 0;
#X connect 27 0 31 3;
#X connect 28 0 31 4;
#X connect 29 0 19 0;
#X connect 29 1 20 0;
#X connect 29 2 21 0;
#X connect 29 3 27 0;
#X connect 29 4 28 0;
#X connect 30 0 31 5;
#X connect 31 0 42 0;
#X connect 34 0 37 0;
#X connect 35 0 34 0;
#X connect 35 1 34 0;
#X connect 36 0 35 0;
#X connect 37 0 40 0;
#X connect 38 0 11 0;
#X connect 39 0 5 0;
#X connect 39 0 13 0;
#X connect 41 0 33 1;
#X connect 42 0 33 0;
