#N canvas 171 71 1138 438 10;
#X floatatom 43 47 5 0 0 0 - - -;
#X obj 43 76 expr if($f1 < 1 \, 0 \, if($f1 > 127 \, 127 \, $f1));
#X floatatom 43 111 5 0 0 0 - - -;
#X text 319 74 Receive MIDI note number (0 to 127);
#X obj 43 23 inlet;
#X floatatom 43 317 5 0 0 0 - - -;
#X floatatom 182 187 5 0 0 0 - - -;
#X obj 43 351 outlet;
#X obj 172 333 outlet;
#X obj 328 333 outlet;
#X obj 483 333 outlet;
#X obj 740 333 outlet;
#X msg 148 241 C C# D D# E F F# G G# A A# B;
#X obj 43 127 expr ($i1 / 12) - 1;
#X text 218 187 class;
#X text 77 315 register;
#X obj 182 127 expr ($i1 % 12);
#X text 40 372 MIDI note number;
#X obj 148 264 unpack s s s s s s s s s s s s;
#X symbolatom 172 312 10 0 0 0 - - -;
#X obj 148 289 mux - - - - - - - - - - - -;
#X obj 381 270 unpack s s s s s s s s s s s s;
#X obj 381 295 mux - - - - - - - - - - - -;
#X text 170 354 Note name (symbol);
#X text 326 356 Pitch-class (0 - 12);
#X text 479 355 Pitch-class distance (interval);
#X text 738 352 register (1 - 6);
#X obj 699 98 i;
#X floatatom 699 121 5 0 0 0 - - -;
#X floatatom 354 175 5 0 0 0 - - -;
#X obj 660 63 t f f b;
#X obj 354 198 > 0;
#X obj 354 224 sel 1;
#X obj 968 50 pitch;
#X text 280 127 Pitch-class;
#X text 966 29 based on;
#X obj 354 250 bng 15 250 50 0 empty empty empty 17 7 0 10 -262144
-1 -1;
#X obj 417 209 bng 15 250 50 0 empty empty empty 17 7 0 10 -262144
-1 -1;
#X msg 381 248 C Db D Eb E F Gb G Ab A Bb B;
#X text 737 120 Produces previous number;
#X obj 354 155 expr $f1 - $f2;
#X connect 0 0 1 0;
#X connect 0 0 30 0;
#X connect 1 0 2 0;
#X connect 1 0 7 0;
#X connect 2 0 13 0;
#X connect 2 0 16 0;
#X connect 4 0 0 0;
#X connect 5 0 11 0;
#X connect 6 0 9 0;
#X connect 6 0 20 12;
#X connect 6 0 22 12;
#X connect 12 0 18 0;
#X connect 13 0 5 0;
#X connect 16 0 6 0;
#X connect 18 0 20 0;
#X connect 18 1 20 1;
#X connect 18 2 20 2;
#X connect 18 3 20 3;
#X connect 18 4 20 4;
#X connect 18 5 20 5;
#X connect 18 6 20 6;
#X connect 18 7 20 7;
#X connect 18 8 20 8;
#X connect 18 9 20 9;
#X connect 18 10 20 10;
#X connect 18 11 20 11;
#X connect 19 0 8 0;
#X connect 20 0 19 0;
#X connect 21 0 22 0;
#X connect 21 1 22 1;
#X connect 21 2 22 2;
#X connect 21 3 22 3;
#X connect 21 4 22 4;
#X connect 21 5 22 5;
#X connect 21 6 22 6;
#X connect 21 7 22 7;
#X connect 21 8 22 8;
#X connect 21 9 22 9;
#X connect 21 10 22 10;
#X connect 21 11 22 11;
#X connect 22 0 19 0;
#X connect 27 0 28 0;
#X connect 28 0 40 1;
#X connect 29 0 31 0;
#X connect 29 0 10 0;
#X connect 30 0 40 0;
#X connect 30 1 27 1;
#X connect 30 2 27 0;
#X connect 31 0 32 0;
#X connect 32 0 12 0;
#X connect 32 0 36 0;
#X connect 32 1 38 0;
#X connect 32 1 37 0;
#X connect 38 0 21 0;
#X connect 40 0 29 0;
