#N canvas 560 151 752 769 10;
#X obj 34 726 dac~ 1 2 3 4 5 6 7 8;
#X obj 31 111 pink~;
#X text 559 742 http://rickygraham.com (2015);
#X text 158 137 inlets;
#X text 160 148 mono input \, audio-rate angle \, message-rate elevation
;
#X text 143 138 <;
#X text 240 105 <;
#X text 32 20 rg.ambi~ - basic ambisonics panners and decoders based
on "FuMa";
#X obj 77 109 expr~ $v1 * (2 * 3.14159);
#X obj 77 89 sig~;
#X obj 80 70 hsl 128 15 0 1 0 0 empty empty empty -2 -8 0 10 -262144
-1 -1 0 1;
#X text 249 106 the angle (radians) is measured anticlockwise and elevation
upwards;
#X obj 77 277 expr~ $v1 * (2 * 3.14159);
#X obj 77 257 sig~;
#X obj 80 238 hsl 128 15 0 1 0 0 empty empty empty -2 -8 0 10 -262144
-1 -1 0 1;
#X obj 31 275 pink~;
#X obj 33 466 pink~;
#X obj 34 645 pink~;
#X text 161 69 0 - 360;
#X text 171 525 http://www.blueripplesound.com/decoding;
#X text 148 300 http://www.blueripplesound.com/b-format;
#X obj 91 474 expr~ $v1 * (2 * 3.14159);
#X obj 91 454 sig~;
#X obj 94 435 hsl 128 15 0 1 0 0 empty empty empty -2 -8 0 10 -262144
-1 -1 0 1;
#X obj 92 647 expr~ $v1 * (2 * 3.14159);
#X obj 92 627 sig~;
#X obj 95 608 hsl 128 15 0 1 0 0 empty empty empty -2 -8 0 10 -262144
-1 -1 0 1;
#X text 171 509 FL \, C \, FR \, BR \, BL;
#X text 161 331 FL FR BR BL;
#X text 167 695 FL at 11 o'clock \; FR at 1 o'clock;
#X text 157 169 This is a simple decode equivalent to a M+S microphone
array at the listening point. This works better than a front-facing
arrangement for many (but not all) purposes.;
#X obj 632 637 rg.ambi-tilt~;
#X obj 632 665 rg.ambi-rotilt~;
#X obj 633 691 rg.ambi-tumble~;
#X obj 634 717 rg.ambi-rotate~;
#X obj 31 202 dac~ 1 2;
#X obj 31 363 dac~ 1 2 3 4;
#X obj 33 563 dac~ 1 2 3 4 5;
#X obj 34 695 rg.ambidec-8~ ****;
#X obj 31 140 rg.ambienc-1o~ *;
#X obj 31 171 rg.ambidec-2~ *;
#X obj 31 331 rg.ambidec-4~ ***;
#X obj 31 299 rg.ambienc-1o~ *;
#X obj 33 494 rg.ambienc-2o~ *****;
#X obj 33 528 rg.ambidec-5~ ****;
#X obj 34 669 rg.ambienc-3o~ *****;
#X text 520 607 Soundfield Manipulations (B-Format);
#X connect 1 0 39 0;
#X connect 8 0 39 1;
#X connect 9 0 8 0;
#X connect 10 0 9 0;
#X connect 12 0 42 1;
#X connect 13 0 12 0;
#X connect 14 0 13 0;
#X connect 21 0 43 1;
#X connect 22 0 21 0;
#X connect 23 0 22 0;
#X connect 24 0 45 1;
#X connect 25 0 24 0;
#X connect 26 0 25 0;
#X connect 38 0 0 0;
#X connect 38 1 0 1;
#X connect 38 2 0 2;
#X connect 38 3 0 3;
#X connect 38 4 0 4;
#X connect 38 5 0 5;
#X connect 38 6 0 6;
#X connect 38 7 0 7;
#X connect 39 0 40 0;
#X connect 39 1 40 1;
#X connect 39 2 40 2;
#X connect 39 3 40 3;
#X connect 40 0 35 0;
#X connect 40 1 35 1;
#X connect 41 0 36 0;
#X connect 41 1 36 1;
#X connect 41 2 36 2;
#X connect 41 3 36 3;
#X connect 42 0 41 0;
#X connect 42 1 41 1;
#X connect 42 2 41 2;
#X connect 42 3 41 3;
#X connect 43 0 44 0;
#X connect 43 1 44 1;
#X connect 43 2 44 2;
#X connect 43 3 44 3;
#X connect 43 4 44 4;
#X connect 43 5 44 5;
#X connect 43 6 44 6;
#X connect 43 7 44 7;
#X connect 43 8 44 8;
#X connect 44 0 37 0;
#X connect 44 1 37 1;
#X connect 44 2 37 2;
#X connect 44 3 37 3;
#X connect 44 4 37 4;
#X connect 45 0 38 0;
#X connect 45 1 38 1;
#X connect 45 2 38 2;
#X connect 45 3 38 3;
#X connect 45 4 38 4;
#X connect 45 5 38 5;
#X connect 45 6 38 6;
#X connect 45 7 38 7;
